# xmcd
#
# Track frame offsets:
#	150
#	14585
#	33355
#	53512
#	66907
#	90255
#	107775
#	120612
#	135295
#	155580
#
# Disc length: 2270 seconds
#
# Revision: 4
# Processed by: cddbd v1.5.2PL0 Copyright (c) Steve Scherf et al.
# Submitted via: audiograbber 1.83.01
#
DISCID=7708dc0a
DTITLE=Roomful Of Blues - Dressed Up To Get Messed Up
DYEAR=1986
DGENRE=Blues
TTITLE0=Money Talks
TTITLE1=What Happened To The Sugar (In My Lemonade)?
TTITLE2=Let's Ride
TTITLE3=Yes Indeed!
TTITLE4=Albi's Boogie
TTITLE5=The Last Time
TTITLE6=Oh Oh
TTITLE7=Dressed Up To Get Messed Up
TTITLE8=He Knows The Rules
TTITLE9=Whiplash
EXTD=
EXTT0=
EXTT1=
EXTT2=
EXTT3=
EXTT4=
EXTT5=
EXTT6=
EXTT7=
EXTT8=
EXTT9=
PLAYORDER=
